<?xml version="1.0" encoding="UTF-8"?><svg xmlns="http://www.w3.org/2000/svg" xmlns:xlink="http://www.w3.org/1999/xlink" contentScriptType="text/ecmascript" width="194.87999pt" zoomAndPan="magnify" contentStyleType="text/css" viewBox="0 0 194.87999 195.000001" height="195.000001pt" preserveAspectRatio="xMidYMid meet" version="1.2"><defs><clipPath xml:id="clip1" id="clip1"><path d="M 75 17.242188 L 121 17.242188 L 121 145 L 75 145 Z M 75 17.242188 "/></clipPath><clipPath xml:id="clip2" id="clip2"><path d="M 96 93 L 194.324219 93 L 194.324219 145 L 96 145 Z M 96 93 "/></clipPath><clipPath xml:id="clip3" id="clip3"><path d="M 0.4375 93 L 99 93 L 99 145 L 0.4375 145 Z M 0.4375 93 "/></clipPath><clipPath xml:id="clip4" id="clip4"><path d="M 40 140 L 100 140 L 100 182.148438 L 40 182.148438 Z M 40 140 "/></clipPath><clipPath xml:id="clip5" id="clip5"><path d="M 96 140 L 156 140 L 156 182.148438 L 96 182.148438 Z M 96 140 "/></clipPath></defs><g xml:id="surface1" id="surface1"><path style=" stroke:none;fill-rule:nonzero;fill:rgb(70.588684%,79.219055%,70.588684%);fill-opacity:1;" d="M 97.644531 142.125 C 92.808594 134.296875 87.152344 124.859375 83.476562 115.019531 C 79.125 103.378906 76.851562 91.386719 76.722656 79.382812 C 76.484375 57.089844 84.023438 35.855469 97.984375 19.390625 C 112.097656 36.027344 119.628906 57.527344 119.238281 80.117188 C 119.027344 92.105469 116.667969 104.078125 112.230469 115.703125 C 108.875 124.519531 103.710938 132.609375 98.722656 140.4375 C 98.367188 140.996094 98.003906 141.558594 97.644531 142.125 "/><g clip-rule="nonzero" clip-path="url(#clip1)"><path style=" stroke:none;fill-rule:nonzero;fill:rgb(3.138733%,25.099182%,15.689087%);fill-opacity:1;" d="M 97.984375 17.222656 C 82.949219 34.304688 75.058594 56.699219 75.300781 79.394531 C 75.433594 91.71875 77.828125 103.96875 82.140625 115.507812 C 86.027344 125.898438 91.808594 135.394531 97.632812 144.796875 C 103.476562 135.539062 109.636719 126.492188 113.5625 116.207031 C 117.953125 104.695312 120.441406 92.464844 120.652344 80.136719 C 121.054688 57.183594 113.203125 34.5 97.984375 17.222656 Z M 97.984375 21.613281 C 104.222656 29.273438 109.101562 37.964844 112.5 47.503906 C 116.21875 57.941406 118.007812 68.90625 117.816406 80.09375 C 117.613281 91.910156 115.28125 103.730469 110.910156 115.199219 C 107.632812 123.800781 102.796875 131.40625 97.671875 139.445312 C 92.351562 130.746094 87.988281 123.046875 84.804688 114.519531 C 80.511719 103.039062 78.273438 91.210938 78.140625 79.371094 C 78.027344 68.316406 79.859375 57.480469 83.585938 47.164062 C 86.988281 37.761719 91.820312 29.179688 97.984375 21.613281 "/></g><path style=" stroke:none;fill-rule:nonzero;fill:rgb(70.588684%,79.219055%,70.588684%);fill-opacity:1;" d="M 146.664062 159.738281 C 145.507812 159.738281 144.34375 159.703125 143.199219 159.648438 C 134.734375 159.203125 126.34375 157.261719 118.253906 153.863281 C 112 151.238281 106.4375 147.738281 100.070312 143.480469 C 100.285156 143.347656 100.5 143.230469 100.71875 143.097656 C 106.398438 139.820312 112.273438 136.433594 118.582031 134.332031 C 126.347656 131.746094 134.289062 130.445312 142.199219 130.445312 C 142.765625 130.445312 143.328125 130.449219 143.894531 130.460938 C 159.660156 130.839844 174.441406 136.628906 185.710938 146.796875 C 174.730469 155.15625 160.933594 159.738281 146.664062 159.738281 "/><path style=" stroke:none;fill-rule:nonzero;fill:rgb(3.138733%,25.099182%,15.689087%);fill-opacity:1;" d="M 142.199219 129.027344 C 134.027344 129.027344 125.882812 130.410156 118.132812 132.988281 C 110.722656 135.453125 104.125 139.535156 97.386719 143.382812 C 103.886719 147.765625 110.449219 152.125 117.703125 155.171875 C 125.761719 158.554688 134.386719 160.605469 143.125 161.058594 C 144.304688 161.121094 145.488281 161.152344 146.664062 161.152344 C 161.5625 161.152344 176.257812 156.253906 187.894531 146.890625 C 176.082031 135.644531 160.226562 129.441406 143.929688 129.046875 C 143.351562 129.035156 142.777344 129.027344 142.199219 129.027344 Z M 142.199219 131.859375 C 142.75 131.859375 143.3125 131.867188 143.863281 131.878906 C 158.683594 132.234375 172.613281 137.472656 183.449219 146.703125 C 172.957031 154.214844 160.023438 158.320312 146.664062 158.320312 C 145.539062 158.320312 144.394531 158.292969 143.269531 158.230469 C 134.972656 157.792969 126.742188 155.890625 118.804688 152.558594 C 113.289062 150.242188 108.285156 147.21875 102.757812 143.5625 C 108.148438 140.460938 113.328125 137.578125 119.03125 135.671875 C 126.648438 133.140625 134.445312 131.859375 142.199219 131.859375 "/><path style=" stroke:none;fill-rule:nonzero;fill:rgb(70.588684%,79.219055%,70.588684%);fill-opacity:1;" d="M 117.714844 143.523438 C 111.699219 143.523438 105.734375 142.976562 99.25 142.265625 C 99.492188 141.894531 99.730469 141.507812 99.96875 141.132812 C 104.171875 134.488281 108.511719 127.617188 114.050781 121.867188 C 121.359375 114.277344 129.6875 108.148438 138.800781 103.65625 C 149.734375 98.257812 161.859375 95.40625 173.855469 95.40625 C 180.292969 95.40625 186.648438 96.21875 192.777344 97.820312 C 185.1875 114.304688 171.6875 127.640625 154.597656 135.484375 C 145.34375 139.730469 135.335938 142.339844 124.832031 143.230469 C 122.554688 143.429688 120.226562 143.523438 117.714844 143.523438 "/><g clip-rule="nonzero" clip-path="url(#clip2)"><path style=" stroke:none;fill-rule:nonzero;fill:rgb(3.138733%,25.099182%,15.689087%);fill-opacity:1;" d="M 173.855469 93.992188 C 161.570312 93.992188 149.304688 96.890625 138.171875 102.378906 C 128.78125 107.015625 120.277344 113.351562 113.027344 120.882812 C 106.546875 127.613281 101.824219 135.605469 96.832031 143.429688 C 103.769531 144.199219 110.738281 144.941406 117.714844 144.941406 C 120.128906 144.941406 122.542969 144.851562 124.957031 144.644531 C 135.390625 143.757812 145.675781 141.144531 155.191406 136.773438 C 172.726562 128.726562 187.074219 114.578125 194.75 96.890625 C 187.910156 94.9375 180.878906 93.992188 173.855469 93.992188 Z M 173.863281 96.824219 C 179.589844 96.824219 185.257812 97.480469 190.75 98.777344 C 183.191406 114.242188 170.25 126.746094 154.003906 134.199219 C 144.902344 138.375 135.046875 140.941406 124.710938 141.824219 C 122.472656 142.011719 120.179688 142.109375 117.714844 142.109375 C 112.464844 142.109375 107.246094 141.683594 101.667969 141.105469 C 105.835938 134.503906 109.839844 128.28125 115.074219 122.847656 C 122.269531 115.375 130.46875 109.34375 139.429688 104.925781 C 150.167969 99.628906 162.074219 96.824219 173.855469 96.824219 L 173.863281 96.824219 "/></g><path style=" stroke:none;fill-rule:nonzero;fill:rgb(70.588684%,79.219055%,70.588684%);fill-opacity:1;" d="M 97.449219 140.902344 C 90.152344 135.003906 84.054688 129.808594 78.738281 123.46875 C 71.984375 115.410156 66.78125 106.488281 63.289062 96.949219 C 56.828125 79.328125 56.8125 60.375 63.195312 43.390625 C 79.035156 52.699219 91.03125 67.667969 97.070312 85.703125 C 100.292969 95.320312 101.796875 105.53125 101.546875 116.054688 C 101.359375 124.027344 99.523438 131.941406 97.757812 139.585938 C 97.65625 140.027344 97.554688 140.464844 97.449219 140.902344 "/><path style=" stroke:none;fill-rule:nonzero;fill:rgb(3.138733%,25.099182%,15.689087%);fill-opacity:1;" d="M 62.476562 41.339844 C 55.285156 59.230469 55.328125 79.359375 61.953125 97.433594 C 65.546875 107.253906 70.933594 116.371094 77.652344 124.382812 C 83.699219 131.589844 91.015625 137.554688 98.332031 143.429688 C 100.382812 134.382812 102.746094 125.414062 102.96875 116.089844 C 103.21875 105.648438 101.738281 95.167969 98.417969 85.253906 C 92.234375 66.792969 79.535156 50.871094 62.476562 41.339844 Z M 63.945312 45.5 C 78.757812 54.683594 89.980469 69.003906 95.722656 86.15625 C 98.894531 95.617188 100.375 105.660156 100.125 116.015625 C 99.949219 123.550781 98.335938 130.765625 96.582031 138.371094 C 90.117188 133.101562 84.636719 128.292969 79.828125 122.5625 C 73.175781 114.628906 68.058594 105.847656 64.621094 96.464844 C 58.480469 79.714844 58.265625 61.746094 63.945312 45.5 "/><path style=" stroke:none;fill-rule:nonzero;fill:rgb(70.588684%,79.219055%,70.588684%);fill-opacity:1;" d="M 99.167969 140.882812 C 96.929688 131.785156 95.222656 123.976562 94.839844 115.722656 C 94.347656 105.222656 95.621094 94.980469 98.628906 85.277344 C 104.175781 67.347656 115.65625 52.246094 131.046875 42.582031 C 138.011719 59.546875 138.484375 78.703125 132.347656 96.710938 C 129.074219 106.304688 124.082031 115.347656 117.5 123.574219 C 112.511719 129.804688 106.257812 135 100.199219 140.023438 C 99.859375 140.3125 99.511719 140.601562 99.167969 140.882812 "/><path style=" stroke:none;fill-rule:nonzero;fill:rgb(3.138733%,25.099182%,15.689087%);fill-opacity:1;" d="M 131.710938 40.515625 C 115.136719 50.421875 102.960938 66.472656 97.269531 84.859375 C 94.179688 94.847656 92.929688 105.355469 93.421875 115.785156 C 93.859375 125.175781 96.066406 134.335938 98.332031 143.429688 C 105.449219 137.464844 112.773438 131.746094 118.605469 124.457031 C 125.140625 116.292969 130.320312 107.054688 133.695312 97.164062 C 139.972656 78.730469 139.515625 58.394531 131.710938 40.515625 Z M 130.363281 44.707031 C 136.589844 60.957031 136.835938 79.132812 131 96.25 C 127.785156 105.695312 122.867188 114.59375 116.390625 122.6875 C 111.675781 128.574219 106.019531 133.351562 100.007812 138.347656 C 98.054688 130.246094 96.609375 123.113281 96.257812 115.652344 C 95.773438 105.320312 97.023438 95.242188 99.980469 85.699219 C 105.257812 68.65625 115.988281 54.222656 130.363281 44.707031 "/><path style=" stroke:none;fill-rule:nonzero;fill:rgb(70.588684%,79.219055%,70.588684%);fill-opacity:1;" d="M 77.449219 143.523438 C 74.9375 143.523438 72.609375 143.429688 70.324219 143.230469 C 59.828125 142.339844 49.820312 139.730469 40.566406 135.484375 C 23.472656 127.640625 9.972656 114.304688 2.386719 97.820312 C 8.515625 96.21875 14.871094 95.40625 21.308594 95.40625 C 33.304688 95.40625 45.425781 98.257812 56.363281 103.65625 C 65.472656 108.148438 73.800781 114.277344 81.113281 121.867188 C 86.652344 127.617188 90.996094 134.488281 95.195312 141.132812 C 95.433594 141.507812 95.671875 141.894531 95.910156 142.265625 C 89.4375 142.976562 83.464844 143.523438 77.449219 143.523438 "/><g clip-rule="nonzero" clip-path="url(#clip3)"><path style=" stroke:none;fill-rule:nonzero;fill:rgb(3.138733%,25.099182%,15.689087%);fill-opacity:1;" d="M 21.308594 93.992188 C 14.285156 93.992188 7.253906 94.9375 0.417969 96.890625 C 8.085938 114.578125 22.441406 128.726562 39.972656 136.773438 C 49.488281 141.144531 59.777344 143.757812 70.207031 144.644531 C 72.621094 144.851562 75.035156 144.941406 77.449219 144.941406 C 84.425781 144.941406 91.394531 144.199219 98.332031 143.429688 C 93.339844 135.605469 88.617188 127.613281 82.136719 120.882812 C 74.882812 113.351562 66.382812 107.015625 56.992188 102.378906 C 45.859375 96.890625 33.597656 93.992188 21.308594 93.992188 Z M 21.308594 93.992188 L 21.308594 96.824219 C 33.089844 96.824219 44.996094 99.621094 55.730469 104.925781 C 64.695312 109.34375 72.894531 115.375 80.089844 122.847656 C 85.324219 128.28125 89.328125 134.503906 93.496094 141.105469 C 87.917969 141.683594 82.699219 142.109375 77.449219 142.109375 C 74.984375 142.109375 72.6875 142.011719 70.449219 141.824219 C 60.113281 140.941406 50.261719 138.375 41.160156 134.199219 C 24.917969 126.746094 11.976562 114.242188 4.410156 98.777344 C 9.90625 97.480469 15.574219 96.824219 21.308594 96.824219 L 21.308594 93.992188 "/></g><path style=" stroke:none;fill-rule:nonzero;fill:rgb(70.588684%,79.219055%,70.588684%);fill-opacity:1;" d="M 114.242188 143.230469 C 109.347656 143.230469 104.488281 142.792969 99.230469 142.226562 C 99.359375 142.011719 99.496094 141.796875 99.632812 141.585938 C 103.132812 136.046875 106.75 130.324219 111.359375 125.539062 C 117.441406 119.222656 124.378906 114.125 131.960938 110.378906 C 141.054688 105.894531 151.144531 103.519531 161.125 103.519531 C 166.386719 103.519531 171.582031 104.171875 176.601562 105.457031 C 170.265625 119.050781 159.082031 130.054688 144.945312 136.539062 C 137.25 140.074219 128.917969 142.242188 120.171875 142.984375 C 118.277344 143.152344 116.332031 143.230469 114.242188 143.230469 "/><path style=" stroke:none;fill-rule:nonzero;fill:rgb(3.138733%,25.099182%,15.689087%);fill-opacity:1;" d="M 161.125 102.101562 C 150.867188 102.101562 140.628906 104.523438 131.332031 109.109375 C 123.484375 112.980469 116.390625 118.269531 110.335938 124.558594 C 104.921875 130.179688 100.984375 136.851562 96.816406 143.382812 C 102.601562 144.027344 108.421875 144.644531 114.242188 144.644531 C 116.261719 144.644531 118.28125 144.574219 120.296875 144.398438 C 129.007812 143.65625 137.597656 141.472656 145.542969 137.824219 C 160.183594 131.105469 172.167969 119.296875 178.578125 104.523438 C 172.863281 102.894531 166.992188 102.101562 161.125 102.101562 Z M 161.132812 104.933594 C 165.683594 104.933594 170.1875 105.433594 174.554688 106.417969 C 168.25 118.988281 157.636719 129.15625 144.355469 135.253906 C 136.808594 138.71875 128.632812 140.84375 120.054688 141.574219 C 118.195312 141.734375 116.292969 141.8125 114.242188 141.8125 C 110.125 141.8125 106.007812 141.496094 101.648438 141.054688 C 104.972656 135.804688 108.210938 130.847656 112.378906 126.523438 C 118.351562 120.320312 125.15625 115.320312 132.59375 111.648438 C 141.492188 107.257812 151.359375 104.933594 161.132812 104.933594 "/><path style=" stroke:none;fill-rule:nonzero;fill:rgb(70.588684%,79.219055%,70.588684%);fill-opacity:1;" d="M 98.742188 142.441406 C 99.21875 134.804688 99.8125 128.273438 101.53125 121.726562 C 103.746094 113.257812 107.300781 105.433594 112.097656 98.464844 C 120.894531 85.667969 133.660156 76.542969 148.175781 72.621094 C 149.417969 87.726562 145.039062 102.945312 135.75 115.660156 C 130.769531 122.480469 124.558594 128.425781 117.28125 133.34375 C 111.773438 137.0625 105.5 139.648438 99.4375 142.152344 C 99.207031 142.25 98.972656 142.339844 98.742188 142.441406 "/><path style=" stroke:none;fill-rule:nonzero;fill:rgb(3.138733%,25.099182%,15.689087%);fill-opacity:1;" d="M 149.429688 70.839844 C 133.75 74.632812 120.042969 84.410156 110.925781 97.660156 C 105.972656 104.863281 102.363281 112.929688 100.15625 121.367188 C 98.167969 128.960938 97.644531 136.804688 97.183594 144.617188 C 104.347656 141.625 111.605469 138.886719 118.078125 134.515625 C 125.320312 129.621094 131.75 123.542969 136.902344 116.492188 C 146.5 103.355469 151.203125 87.023438 149.429688 70.839844 Z M 146.878906 74.464844 C 147.632812 88.65625 143.332031 102.875 134.601562 114.824219 C 129.722656 121.511719 123.621094 127.351562 116.488281 132.171875 C 111.503906 135.53125 106.058594 137.875 100.304688 140.261719 C 100.761719 133.660156 101.394531 127.859375 102.90625 122.078125 C 105.082031 113.777344 108.5625 106.097656 113.265625 99.265625 C 121.539062 87.242188 133.382812 78.53125 146.878906 74.464844 "/><path style=" stroke:none;fill-rule:nonzero;fill:rgb(70.588684%,79.219055%,70.588684%);fill-opacity:1;" d="M 48.957031 159.738281 C 34.679688 159.738281 20.878906 155.15625 9.90625 146.796875 C 21.171875 136.628906 35.953125 130.839844 51.722656 130.460938 C 52.285156 130.449219 52.851562 130.445312 53.421875 130.445312 C 61.320312 130.445312 69.269531 131.746094 77.027344 134.332031 C 83.339844 136.433594 89.21875 139.820312 94.902344 143.105469 C 95.109375 143.230469 95.332031 143.355469 95.546875 143.480469 C 89.175781 147.738281 83.613281 151.238281 77.359375 153.863281 C 69.273438 157.261719 60.882812 159.203125 52.421875 159.648438 C 51.265625 159.703125 50.101562 159.738281 48.957031 159.738281 "/><path style=" stroke:none;fill-rule:nonzero;fill:rgb(3.138733%,25.099182%,15.689087%);fill-opacity:1;" d="M 53.421875 129.027344 C 52.839844 129.027344 52.261719 129.035156 51.6875 129.042969 C 35.390625 129.441406 19.53125 135.644531 7.722656 146.890625 C 19.359375 156.253906 34.054688 161.152344 48.957031 161.152344 C 50.132812 161.152344 51.3125 161.121094 52.496094 161.058594 C 61.230469 160.605469 69.847656 158.554688 77.910156 155.171875 C 85.164062 152.125 91.730469 147.765625 98.222656 143.382812 C 91.492188 139.535156 84.890625 135.453125 77.476562 132.988281 C 69.730469 130.410156 61.589844 129.027344 53.421875 129.027344 Z M 53.421875 131.859375 C 61.175781 131.859375 68.960938 133.140625 76.582031 135.671875 C 82.289062 137.578125 87.464844 140.460938 92.859375 143.5625 C 87.328125 147.21875 82.328125 150.242188 76.808594 152.558594 C 68.878906 155.890625 60.640625 157.792969 52.339844 158.230469 C 51.222656 158.292969 50.078125 158.320312 48.957031 158.320312 C 35.589844 158.320312 22.65625 154.214844 12.164062 146.703125 C 23 137.472656 36.929688 132.234375 51.753906 131.878906 C 52.308594 131.867188 52.863281 131.859375 53.421875 131.859375 "/><path style=" stroke:none;fill-rule:nonzero;fill:rgb(70.588684%,79.219055%,70.588684%);fill-opacity:1;" d="M 80.796875 143.230469 C 78.703125 143.230469 76.761719 143.152344 74.863281 142.984375 C 66.121094 142.242188 57.789062 140.074219 50.089844 136.539062 C 35.957031 130.054688 24.773438 119.050781 18.4375 105.457031 C 23.453125 104.171875 28.648438 103.519531 33.914062 103.519531 C 43.894531 103.519531 53.984375 105.894531 63.078125 110.378906 C 70.660156 114.125 77.589844 119.222656 83.679688 125.539062 C 88.289062 130.324219 91.90625 136.046875 95.40625 141.585938 C 95.542969 141.796875 95.671875 142.011719 95.808594 142.226562 C 90.550781 142.792969 85.691406 143.230469 80.796875 143.230469 "/><path style=" stroke:none;fill-rule:nonzero;fill:rgb(3.138733%,25.099182%,15.689087%);fill-opacity:1;" d="M 33.914062 102.101562 C 28.046875 102.101562 22.171875 102.894531 16.464844 104.523438 C 22.867188 119.296875 34.855469 131.105469 49.496094 137.824219 C 57.441406 141.472656 66.03125 143.65625 74.738281 144.398438 C 76.761719 144.574219 78.777344 144.644531 80.796875 144.644531 C 86.617188 144.644531 92.433594 144.027344 98.222656 143.382812 C 94.054688 136.851562 90.117188 130.179688 84.703125 124.558594 C 78.648438 118.269531 71.554688 112.980469 63.707031 109.109375 C 54.410156 104.523438 44.171875 102.101562 33.914062 102.101562 Z M 33.914062 102.101562 L 33.914062 104.933594 C 43.679688 104.933594 53.546875 107.257812 62.445312 111.648438 C 69.882812 115.320312 76.683594 120.320312 82.660156 126.523438 C 86.824219 130.847656 90.066406 135.804688 93.390625 141.054688 C 89.03125 141.496094 84.914062 141.8125 80.796875 141.8125 C 78.746094 141.8125 76.839844 141.734375 74.984375 141.574219 C 66.40625 140.84375 58.230469 138.71875 50.683594 135.253906 C 37.402344 129.15625 26.789062 118.988281 20.484375 106.417969 C 24.855469 105.433594 29.355469 104.933594 33.914062 104.933594 L 33.914062 102.101562 "/><path style=" stroke:none;fill-rule:nonzero;fill:rgb(70.588684%,79.219055%,70.588684%);fill-opacity:1;" d="M 96.191406 142.644531 C 89.117188 139.6875 83.125 136.980469 77.484375 133.214844 C 70.195312 128.347656 63.953125 122.433594 58.925781 115.625 C 49.695312 103.132812 45.238281 88.117188 46.289062 73.15625 C 61.003906 76.945312 73.984375 86.070312 82.976562 98.992188 C 87.804688 105.921875 91.394531 113.734375 93.664062 122.195312 C 95.378906 128.601562 95.769531 135.359375 96.144531 141.894531 C 96.160156 142.140625 96.171875 142.398438 96.191406 142.644531 "/><path style=" stroke:none;fill-rule:nonzero;fill:rgb(3.138733%,25.099182%,15.689087%);fill-opacity:1;" d="M 45.011719 71.386719 C 43.457031 87.40625 48.222656 103.523438 57.78125 116.46875 C 62.96875 123.492188 69.429688 129.542969 76.695312 134.390625 C 83.238281 138.761719 90.496094 141.832031 97.746094 144.828125 C 97.261719 137.101562 97.046875 129.355469 95.03125 121.828125 C 92.78125 113.402344 89.132812 105.347656 84.148438 98.183594 C 74.847656 84.832031 60.925781 75.035156 45.011719 71.386719 Z M 47.609375 74.984375 C 61.304688 78.933594 73.355469 87.652344 81.8125 99.796875 C 86.539062 106.59375 90.066406 114.253906 92.292969 122.558594 C 93.84375 128.359375 94.277344 134.257812 94.640625 140.453125 C 88.539062 137.859375 83.253906 135.359375 78.273438 132.042969 C 71.121094 127.265625 64.996094 121.460938 60.066406 114.785156 C 51.398438 103.050781 47.03125 89.035156 47.609375 74.984375 "/><path style=" stroke:none;fill-rule:nonzero;fill:rgb(70.588684%,79.219055%,70.588684%);fill-opacity:1;" d="M 97.804688 142.121094 C 94.71875 137.089844 92.195312 132.660156 90.363281 127.742188 C 87.925781 121.234375 86.652344 114.527344 86.578125 107.808594 C 86.449219 95.605469 90.488281 83.96875 97.984375 74.859375 C 105.558594 84.070312 109.597656 95.847656 109.378906 108.222656 C 109.261719 114.929688 107.941406 121.625 105.460938 128.132812 C 103.585938 133.054688 100.683594 137.605469 97.878906 142 C 97.855469 142.039062 97.832031 142.078125 97.804688 142.121094 "/><path style=" stroke:none;fill-rule:nonzero;fill:rgb(3.138733%,25.099182%,15.689087%);fill-opacity:1;" d="M 97.984375 72.671875 C 89.480469 82.328125 85.023438 94.988281 85.15625 107.824219 C 85.238281 114.792969 86.589844 121.714844 89.027344 128.242188 C 91.226562 134.113281 94.492188 139.480469 97.785156 144.800781 C 101.085938 139.566406 104.574219 134.449219 106.789062 128.632812 C 109.273438 122.128906 110.679688 115.210938 110.800781 108.242188 C 111.027344 95.265625 106.585938 82.445312 97.984375 72.671875 Z M 97.984375 77.144531 C 104.636719 85.878906 108.160156 96.777344 107.960938 108.191406 C 107.847656 114.734375 106.5625 121.273438 104.136719 127.628906 C 102.550781 131.773438 100.292969 135.546875 97.832031 139.433594 C 95.320312 135.246094 93.246094 131.414062 91.691406 127.25 C 89.3125 120.894531 88.074219 114.34375 88 107.796875 C 87.878906 96.535156 91.40625 85.78125 97.984375 77.144531 "/><path style=" stroke:none;fill-rule:nonzero;fill:rgb(70.588684%,79.219055%,70.588684%);fill-opacity:1;" d="M 45.632812 180.691406 C 44.582031 180.691406 43.519531 180.65625 42.460938 180.589844 C 45.5625 169.085938 52.816406 158.960938 63.03125 151.9375 C 68.570312 148.128906 74.796875 145.296875 81.550781 143.523438 C 86.65625 142.183594 92.054688 141.886719 97.269531 141.597656 C 97.320312 141.597656 97.371094 141.597656 97.417969 141.59375 C 95.109375 147.023438 92.964844 151.648438 90.027344 156 C 86.128906 161.757812 81.398438 166.699219 75.96875 170.664062 C 67.105469 177.132812 56.328125 180.691406 45.632812 180.691406 "/><g clip-rule="nonzero" clip-path="url(#clip4)"><path style=" stroke:none;fill-rule:nonzero;fill:rgb(3.138733%,25.099182%,15.689087%);fill-opacity:1;" d="M 99.609375 140.050781 C 93.417969 140.421875 87.21875 140.566406 81.1875 142.152344 C 74.4375 143.925781 67.980469 146.816406 62.226562 150.769531 C 51.511719 158.140625 43.636719 169.203125 40.679688 181.863281 C 42.332031 182.027344 43.984375 182.109375 45.632812 182.109375 C 56.789062 182.109375 67.757812 178.410156 76.800781 171.808594 C 82.441406 167.691406 87.300781 162.5625 91.203125 156.785156 C 94.714844 151.589844 97.191406 145.8125 99.609375 140.050781 Z M 95.207031 143.132812 C 93.257812 147.601562 91.339844 151.523438 88.851562 155.207031 C 85.042969 160.835938 80.433594 165.652344 75.125 169.519531 C 66.507812 175.8125 56.035156 179.273438 45.632812 179.273438 C 45.199219 179.273438 44.761719 179.269531 44.324219 179.257812 C 47.574219 168.785156 54.414062 159.585938 63.839844 153.105469 C 69.242188 149.386719 75.320312 146.628906 81.914062 144.894531 C 86.214844 143.761719 90.605469 143.398438 95.207031 143.132812 "/></g><path style=" stroke:none;fill-rule:nonzero;fill:rgb(70.588684%,79.219055%,70.588684%);fill-opacity:1;" d="M 150.332031 180.691406 C 139.636719 180.691406 128.859375 177.132812 120.003906 170.664062 C 114.566406 166.699219 109.835938 161.757812 105.945312 156 C 103 151.648438 100.859375 147.023438 98.546875 141.59375 C 98.597656 141.597656 98.644531 141.597656 98.695312 141.597656 C 103.910156 141.886719 109.308594 142.183594 114.414062 143.523438 C 121.167969 145.296875 127.398438 148.128906 132.933594 151.9375 C 143.148438 158.960938 150.40625 169.085938 153.503906 180.589844 C 152.453125 180.65625 151.390625 180.691406 150.332031 180.691406 "/><g clip-rule="nonzero" clip-path="url(#clip5)"><path style=" stroke:none;fill-rule:nonzero;fill:rgb(3.138733%,25.099182%,15.689087%);fill-opacity:1;" d="M 96.359375 140.050781 C 98.773438 145.8125 101.25 151.589844 104.761719 156.785156 C 108.664062 162.5625 113.523438 167.691406 119.164062 171.808594 C 128.210938 178.410156 139.179688 182.109375 150.332031 182.109375 C 151.984375 182.109375 153.640625 182.027344 155.292969 181.863281 C 152.332031 169.203125 144.453125 158.140625 133.738281 150.769531 C 127.992188 146.816406 121.53125 143.925781 114.777344 142.152344 C 108.746094 140.566406 102.546875 140.421875 96.359375 140.050781 Z M 100.757812 143.132812 C 105.359375 143.398438 109.75 143.761719 114.054688 144.894531 C 120.644531 146.628906 126.730469 149.386719 132.125 153.105469 C 141.554688 159.585938 148.390625 168.785156 151.644531 179.257812 C 151.207031 179.269531 150.769531 179.273438 150.332031 179.273438 C 139.9375 179.273438 129.460938 175.8125 120.839844 169.519531 C 115.539062 165.652344 110.921875 160.835938 107.121094 155.207031 C 104.632812 151.523438 102.710938 147.601562 100.757812 143.132812 "/></g></g></svg>