<?xml version="1.0" encoding="UTF-8"?><svg xmlns="http://www.w3.org/2000/svg" xmlns:xlink="http://www.w3.org/1999/xlink" contentScriptType="text/ecmascript" width="90pt" zoomAndPan="magnify" contentStyleType="text/css" viewBox="0 0 90 89.999999" height="89.999999pt" preserveAspectRatio="xMidYMid meet" version="1.2"><defs><clipPath xml:id="clip1" id="clip1"><path d="M 34 8 L 56 8 L 56 68 L 34 68 Z M 34 8 "/></clipPath><clipPath xml:id="clip2" id="clip2"><path d="M 44 43 L 89.90625 43 L 89.90625 68 L 44 68 Z M 44 43 "/></clipPath><clipPath xml:id="clip3" id="clip3"><path d="M 18 64 L 46 64 L 46 84.5 L 18 84.5 Z M 18 64 "/></clipPath><clipPath xml:id="clip4" id="clip4"><path d="M 44 64 L 72 64 L 72 84.5 L 44 84.5 Z M 44 64 "/></clipPath></defs><g xml:id="surface1" id="surface1"><path style=" stroke:none;fill-rule:nonzero;fill:rgb(70.588684%,79.219055%,70.588684%);fill-opacity:1;" d="M 44.921875 65.933594 C 42.6875 62.300781 40.074219 57.921875 38.375 53.359375 C 36.363281 47.957031 35.316406 42.394531 35.253906 36.824219 C 35.144531 26.484375 38.628906 16.632812 45.078125 8.996094 C 51.597656 16.714844 55.078125 26.6875 54.898438 37.167969 C 54.800781 42.726562 53.710938 48.28125 51.664062 53.675781 C 50.109375 57.765625 47.726562 61.519531 45.421875 65.148438 C 45.253906 65.410156 45.085938 65.667969 44.921875 65.933594 "/><g clip-rule="nonzero" clip-path="url(#clip1)"><path style=" stroke:none;fill-rule:nonzero;fill:rgb(3.138733%,25.099182%,15.689087%);fill-opacity:1;" d="M 45.078125 7.988281 C 38.132812 15.914062 34.484375 26.304688 34.597656 36.832031 C 34.660156 42.546875 35.765625 48.230469 37.757812 53.585938 C 39.554688 58.40625 42.226562 62.808594 44.917969 67.171875 C 47.617188 62.878906 50.460938 58.679688 52.277344 53.910156 C 54.304688 48.570312 55.457031 42.894531 55.550781 37.175781 C 55.738281 26.527344 52.109375 16.003906 45.078125 7.988281 Z M 45.078125 10.027344 C 47.960938 13.578125 50.214844 17.613281 51.785156 22.039062 C 53.503906 26.878906 54.332031 31.964844 54.242188 37.15625 C 54.148438 42.636719 53.070312 48.121094 51.050781 53.441406 C 49.535156 57.429688 47.300781 60.960938 44.933594 64.691406 C 42.476562 60.652344 40.460938 57.082031 38.988281 53.125 C 37.003906 47.800781 35.96875 42.3125 35.910156 36.820312 C 35.859375 31.691406 36.703125 26.664062 38.425781 21.878906 C 39.996094 17.519531 42.230469 13.535156 45.078125 10.027344 "/></g><path style=" stroke:none;fill-rule:nonzero;fill:rgb(70.588684%,79.219055%,70.588684%);fill-opacity:1;" d="M 67.570312 74.101562 C 67.039062 74.101562 66.5 74.085938 65.972656 74.0625 C 62.058594 73.855469 58.183594 72.953125 54.445312 71.378906 C 51.554688 70.160156 48.984375 68.535156 46.042969 66.5625 C 46.140625 66.5 46.242188 66.445312 46.339844 66.382812 C 48.964844 64.863281 51.679688 63.292969 54.597656 62.316406 C 58.183594 61.117188 61.855469 60.515625 65.507812 60.515625 C 65.769531 60.515625 66.03125 60.515625 66.292969 60.523438 C 73.578125 60.699219 80.40625 63.382812 85.617188 68.101562 C 80.542969 71.976562 74.164062 74.101562 67.570312 74.101562 "/><path style=" stroke:none;fill-rule:nonzero;fill:rgb(3.138733%,25.099182%,15.689087%);fill-opacity:1;" d="M 65.507812 59.855469 C 61.734375 59.855469 57.96875 60.496094 54.390625 61.695312 C 50.964844 62.835938 47.917969 64.730469 44.804688 66.515625 C 47.804688 68.550781 50.839844 70.570312 54.191406 71.984375 C 57.914062 73.554688 61.898438 74.503906 65.9375 74.714844 C 66.484375 74.746094 67.027344 74.761719 67.570312 74.761719 C 74.457031 74.761719 81.246094 72.488281 86.625 68.144531 C 81.167969 62.925781 73.839844 60.046875 66.308594 59.863281 C 66.042969 59.859375 65.777344 59.855469 65.507812 59.855469 Z M 65.507812 61.171875 C 65.761719 61.171875 66.023438 61.171875 66.277344 61.179688 C 73.125 61.34375 79.5625 63.773438 84.570312 68.054688 C 79.722656 71.539062 73.746094 73.445312 67.570312 73.445312 C 67.050781 73.445312 66.523438 73.433594 66.003906 73.402344 C 62.167969 73.203125 58.367188 72.320312 54.699219 70.773438 C 52.152344 69.699219 49.839844 68.296875 47.285156 66.601562 C 49.773438 65.160156 52.167969 63.824219 54.804688 62.9375 C 58.324219 61.765625 61.925781 61.171875 65.507812 61.171875 "/><path style=" stroke:none;fill-rule:nonzero;fill:rgb(70.588684%,79.219055%,70.588684%);fill-opacity:1;" d="M 54.195312 66.582031 C 51.414062 66.582031 48.660156 66.328125 45.664062 66 C 45.773438 65.824219 45.886719 65.644531 45.996094 65.472656 C 47.9375 62.390625 49.941406 59.203125 52.503906 56.535156 C 55.878906 53.011719 59.730469 50.171875 63.9375 48.085938 C 68.992188 45.582031 74.59375 44.261719 80.136719 44.261719 C 83.113281 44.261719 86.046875 44.636719 88.882812 45.378906 C 85.375 53.027344 79.132812 59.210938 71.238281 62.851562 C 66.964844 64.820312 62.339844 66.03125 57.484375 66.445312 C 56.433594 66.535156 55.355469 66.582031 54.195312 66.582031 "/><g clip-rule="nonzero" clip-path="url(#clip2)"><path style=" stroke:none;fill-rule:nonzero;fill:rgb(3.138733%,25.099182%,15.689087%);fill-opacity:1;" d="M 80.136719 43.601562 C 74.460938 43.601562 68.792969 44.949219 63.648438 47.496094 C 59.308594 49.644531 55.378906 52.585938 52.03125 56.078125 C 49.035156 59.199219 46.855469 62.90625 44.546875 66.535156 C 47.75 66.894531 50.972656 67.238281 54.195312 67.238281 C 55.3125 67.238281 56.425781 67.195312 57.542969 67.101562 C 62.363281 66.6875 67.113281 65.476562 71.511719 63.449219 C 79.613281 59.71875 86.246094 53.152344 89.792969 44.949219 C 86.632812 44.042969 83.382812 43.601562 80.136719 43.601562 Z M 80.140625 44.917969 C 82.785156 44.917969 85.40625 45.222656 87.945312 45.824219 C 84.449219 52.996094 78.46875 58.796875 70.964844 62.257812 C 66.757812 64.191406 62.203125 65.382812 57.429688 65.792969 C 56.394531 65.878906 55.335938 65.925781 54.195312 65.925781 C 51.769531 65.925781 49.359375 65.726562 46.78125 65.460938 C 48.707031 62.398438 50.558594 59.511719 52.976562 56.988281 C 56.300781 53.523438 60.089844 50.722656 64.230469 48.675781 C 69.191406 46.21875 74.691406 44.917969 80.136719 44.917969 L 80.140625 44.917969 "/></g><path style=" stroke:none;fill-rule:nonzero;fill:rgb(70.588684%,79.219055%,70.588684%);fill-opacity:1;" d="M 44.832031 65.363281 C 41.460938 62.628906 38.644531 60.21875 36.1875 57.277344 C 33.066406 53.539062 30.660156 49.398438 29.046875 44.972656 C 26.0625 36.800781 26.054688 28.007812 29.003906 20.128906 C 36.324219 24.449219 41.867188 31.390625 44.65625 39.757812 C 46.144531 44.21875 46.839844 48.957031 46.726562 53.839844 C 46.636719 57.535156 45.789062 61.207031 44.972656 64.753906 C 44.925781 64.960938 44.878906 65.164062 44.832031 65.363281 "/><path style=" stroke:none;fill-rule:nonzero;fill:rgb(3.138733%,25.099182%,15.689087%);fill-opacity:1;" d="M 28.671875 19.179688 C 25.347656 27.476562 25.367188 36.816406 28.429688 45.199219 C 30.089844 49.753906 32.578125 53.984375 35.683594 57.703125 C 38.476562 61.042969 41.859375 63.8125 45.238281 66.535156 C 46.1875 62.339844 47.277344 58.179688 47.382812 53.855469 C 47.496094 49.011719 46.8125 44.148438 45.277344 39.550781 C 42.421875 30.984375 36.554688 23.597656 28.671875 19.179688 Z M 29.351562 21.109375 C 36.195312 25.367188 41.378906 32.011719 44.035156 39.96875 C 45.5 44.355469 46.183594 49.015625 46.070312 53.820312 C 45.988281 57.316406 45.242188 60.664062 44.429688 64.191406 C 41.445312 61.746094 38.910156 59.515625 36.691406 56.859375 C 33.617188 53.175781 31.25 49.101562 29.664062 44.75 C 26.824219 36.980469 26.726562 28.644531 29.351562 21.109375 "/><path style=" stroke:none;fill-rule:nonzero;fill:rgb(70.588684%,79.219055%,70.588684%);fill-opacity:1;" d="M 45.625 65.355469 C 44.589844 61.136719 43.804688 57.511719 43.625 53.683594 C 43.398438 48.8125 43.988281 44.0625 45.375 39.5625 C 47.941406 31.242188 53.246094 24.238281 60.355469 19.753906 C 63.574219 27.625 63.792969 36.511719 60.957031 44.863281 C 59.445312 49.316406 57.136719 53.511719 54.09375 57.324219 C 51.792969 60.214844 48.902344 62.625 46.101562 64.957031 C 45.945312 65.089844 45.785156 65.226562 45.625 65.355469 "/><path style=" stroke:none;fill-rule:nonzero;fill:rgb(3.138733%,25.099182%,15.689087%);fill-opacity:1;" d="M 60.664062 18.792969 C 53.003906 23.390625 47.378906 30.835938 44.75 39.367188 C 43.320312 44 42.742188 48.875 42.972656 53.710938 C 43.171875 58.070312 44.191406 62.320312 45.238281 66.535156 C 48.527344 63.769531 51.910156 61.117188 54.609375 57.734375 C 57.625 53.949219 60.019531 49.664062 61.578125 45.074219 C 64.480469 36.523438 64.269531 27.089844 60.664062 18.792969 Z M 60.042969 20.738281 C 62.917969 28.277344 63.03125 36.710938 60.335938 44.652344 C 58.847656 49.03125 56.578125 53.160156 53.582031 56.917969 C 51.40625 59.648438 48.789062 61.863281 46.011719 64.179688 C 45.109375 60.421875 44.445312 57.113281 44.28125 53.652344 C 44.058594 48.859375 44.636719 44.183594 46 39.753906 C 48.4375 31.851562 53.398438 25.15625 60.042969 20.738281 "/><path style=" stroke:none;fill-rule:nonzero;fill:rgb(70.588684%,79.219055%,70.588684%);fill-opacity:1;" d="M 35.589844 66.582031 C 34.429688 66.582031 33.355469 66.535156 32.296875 66.445312 C 27.449219 66.03125 22.824219 64.820312 18.546875 62.851562 C 10.648438 59.210938 4.410156 53.027344 0.90625 45.378906 C 3.738281 44.636719 6.675781 44.261719 9.648438 44.261719 C 15.191406 44.261719 20.792969 45.582031 25.847656 48.085938 C 30.058594 50.171875 33.90625 53.011719 37.28125 56.535156 C 39.84375 59.203125 41.851562 62.390625 43.789062 65.472656 C 43.902344 65.644531 44.011719 65.824219 44.121094 66 C 41.128906 66.328125 38.371094 66.582031 35.589844 66.582031 "/><path style=" stroke:none;fill-rule:nonzero;fill:rgb(3.138733%,25.099182%,15.689087%);fill-opacity:1;" d="M 9.648438 43.601562 C 6.402344 43.601562 3.152344 44.042969 -0.00390625 44.949219 C 3.539062 53.152344 10.171875 59.71875 18.273438 63.449219 C 22.671875 65.476562 27.425781 66.6875 32.242188 67.101562 C 33.359375 67.195312 34.472656 67.238281 35.589844 67.238281 C 38.8125 67.238281 42.035156 66.894531 45.238281 66.535156 C 42.933594 62.90625 40.75 59.199219 37.753906 56.078125 C 34.402344 52.585938 30.476562 49.644531 26.136719 47.496094 C 20.992188 44.949219 15.328125 43.601562 9.648438 43.601562 Z M 9.648438 43.601562 L 9.648438 44.917969 C 15.09375 44.917969 20.59375 46.214844 25.554688 48.675781 C 29.695312 50.722656 33.484375 53.523438 36.8125 56.988281 C 39.226562 59.511719 41.078125 62.398438 43.003906 65.460938 C 40.429688 65.726562 38.015625 65.925781 35.589844 65.925781 C 34.449219 65.925781 33.390625 65.878906 32.355469 65.792969 C 27.578125 65.382812 23.027344 64.191406 18.820312 62.257812 C 11.316406 58.796875 5.335938 52.996094 1.839844 45.824219 C 4.378906 45.222656 7 44.917969 9.648438 44.917969 L 9.648438 43.601562 "/><path style=" stroke:none;fill-rule:nonzero;fill:rgb(70.588684%,79.219055%,70.588684%);fill-opacity:1;" d="M 52.589844 66.445312 C 50.328125 66.445312 48.085938 66.242188 45.652344 65.980469 C 45.714844 65.878906 45.777344 65.78125 45.839844 65.683594 C 47.457031 63.113281 49.128906 60.457031 51.257812 58.238281 C 54.070312 55.308594 57.273438 52.941406 60.777344 51.207031 C 64.980469 49.125 69.644531 48.023438 74.253906 48.023438 C 76.6875 48.023438 79.085938 48.324219 81.40625 48.921875 C 78.476562 55.230469 73.308594 60.332031 66.777344 63.339844 C 63.222656 64.980469 59.371094 65.988281 55.332031 66.332031 C 54.457031 66.410156 53.558594 66.445312 52.589844 66.445312 "/><path style=" stroke:none;fill-rule:nonzero;fill:rgb(3.138733%,25.099182%,15.689087%);fill-opacity:1;" d="M 74.253906 47.367188 C 69.515625 47.367188 64.785156 48.488281 60.488281 50.617188 C 56.863281 52.410156 53.582031 54.867188 50.785156 57.785156 C 48.285156 60.390625 46.464844 63.484375 44.539062 66.515625 C 47.214844 66.816406 49.902344 67.101562 52.589844 67.101562 C 53.523438 67.101562 54.457031 67.066406 55.390625 66.988281 C 59.414062 66.640625 63.382812 65.628906 67.054688 63.9375 C 73.820312 60.820312 79.359375 55.34375 82.320312 48.488281 C 79.679688 47.734375 76.964844 47.367188 74.253906 47.367188 Z M 74.257812 48.679688 C 76.359375 48.679688 78.441406 48.910156 80.460938 49.367188 C 77.546875 55.199219 72.644531 59.917969 66.507812 62.746094 C 63.019531 64.351562 59.242188 65.339844 55.277344 65.675781 C 54.417969 65.75 53.539062 65.789062 52.589844 65.789062 C 50.6875 65.789062 48.785156 65.640625 46.773438 65.4375 C 48.308594 63 49.804688 60.699219 51.730469 58.695312 C 54.488281 55.816406 57.632812 53.496094 61.070312 51.792969 C 65.183594 49.757812 69.742188 48.679688 74.257812 48.679688 "/><path style=" stroke:none;fill-rule:nonzero;fill:rgb(70.588684%,79.219055%,70.588684%);fill-opacity:1;" d="M 45.429688 66.078125 C 45.648438 62.539062 45.925781 59.507812 46.71875 56.46875 C 47.742188 52.539062 49.382812 48.910156 51.597656 45.679688 C 55.664062 39.742188 61.5625 35.507812 68.269531 33.691406 C 68.84375 40.695312 66.820312 47.757812 62.53125 53.65625 C 60.226562 56.820312 57.359375 59.578125 53.996094 61.859375 C 51.449219 63.582031 48.550781 64.785156 45.75 65.945312 C 45.644531 65.992188 45.535156 66.03125 45.429688 66.078125 "/><path style=" stroke:none;fill-rule:nonzero;fill:rgb(3.138733%,25.099182%,15.689087%);fill-opacity:1;" d="M 68.851562 32.863281 C 61.605469 34.621094 55.273438 39.160156 51.058594 45.304688 C 48.769531 48.644531 47.101562 52.386719 46.082031 56.304688 C 45.164062 59.824219 44.921875 63.464844 44.710938 67.089844 C 48.019531 65.703125 51.375 64.429688 54.363281 62.402344 C 57.710938 60.132812 60.679688 57.3125 63.0625 54.042969 C 67.496094 47.945312 69.667969 40.371094 68.851562 32.863281 Z M 67.671875 34.542969 C 68.019531 41.128906 66.035156 47.722656 62 53.269531 C 59.746094 56.371094 56.925781 59.078125 53.628906 61.316406 C 51.328125 62.875 48.808594 63.960938 46.148438 65.066406 C 46.363281 62.007812 46.652344 59.316406 47.351562 56.632812 C 48.359375 52.78125 49.964844 49.21875 52.140625 46.050781 C 55.960938 40.472656 61.433594 36.429688 67.671875 34.542969 "/><path style=" stroke:none;fill-rule:nonzero;fill:rgb(70.588684%,79.219055%,70.588684%);fill-opacity:1;" d="M 22.421875 74.101562 C 15.828125 74.101562 9.449219 71.976562 4.378906 68.101562 C 9.585938 63.382812 16.414062 60.699219 23.703125 60.523438 C 23.960938 60.515625 24.222656 60.515625 24.488281 60.515625 C 28.136719 60.515625 31.808594 61.117188 35.394531 62.316406 C 38.3125 63.292969 41.027344 64.863281 43.652344 66.386719 C 43.75 66.445312 43.851562 66.503906 43.953125 66.5625 C 41.007812 68.535156 38.4375 70.160156 35.546875 71.378906 C 31.8125 72.953125 27.9375 73.855469 24.023438 74.0625 C 23.492188 74.085938 22.953125 74.101562 22.421875 74.101562 "/><path style=" stroke:none;fill-rule:nonzero;fill:rgb(3.138733%,25.099182%,15.689087%);fill-opacity:1;" d="M 24.488281 59.855469 C 24.21875 59.855469 23.953125 59.859375 23.6875 59.863281 C 16.15625 60.046875 8.828125 62.925781 3.371094 68.144531 C 8.746094 72.488281 15.539062 74.761719 22.421875 74.761719 C 22.96875 74.761719 23.511719 74.746094 24.058594 74.714844 C 28.097656 74.503906 32.078125 73.554688 35.800781 71.984375 C 39.15625 70.570312 42.1875 68.550781 45.1875 66.515625 C 42.078125 64.730469 39.027344 62.835938 35.601562 61.695312 C 32.023438 60.496094 28.261719 59.855469 24.488281 59.855469 Z M 24.488281 61.171875 C 28.070312 61.171875 31.667969 61.765625 35.1875 62.9375 C 37.828125 63.824219 40.21875 65.160156 42.710938 66.601562 C 40.15625 68.296875 37.84375 69.699219 35.292969 70.773438 C 31.628906 72.320312 27.824219 73.203125 23.988281 73.402344 C 23.472656 73.433594 22.941406 73.445312 22.421875 73.445312 C 16.246094 73.445312 10.269531 71.539062 5.421875 68.054688 C 10.429688 63.773438 16.867188 61.34375 23.71875 61.179688 C 23.972656 61.171875 24.230469 61.171875 24.488281 61.171875 "/><path style=" stroke:none;fill-rule:nonzero;fill:rgb(70.588684%,79.219055%,70.588684%);fill-opacity:1;" d="M 37.136719 66.445312 C 36.171875 66.445312 35.273438 66.410156 34.394531 66.332031 C 30.355469 65.988281 26.503906 64.980469 22.949219 63.339844 C 16.417969 60.332031 11.25 55.230469 8.324219 48.921875 C 10.640625 48.324219 13.039062 48.023438 15.472656 48.023438 C 20.085938 48.023438 24.746094 49.125 28.949219 51.207031 C 32.453125 52.941406 35.65625 55.308594 38.46875 58.238281 C 40.597656 60.457031 42.269531 63.113281 43.886719 65.683594 C 43.949219 65.78125 44.011719 65.878906 44.074219 65.980469 C 41.644531 66.242188 39.398438 66.445312 37.136719 66.445312 "/><path style=" stroke:none;fill-rule:nonzero;fill:rgb(3.138733%,25.099182%,15.689087%);fill-opacity:1;" d="M 15.472656 47.367188 C 12.761719 47.367188 10.046875 47.734375 7.410156 48.488281 C 10.371094 55.34375 15.910156 60.820312 22.671875 63.9375 C 26.34375 65.628906 30.3125 66.640625 34.339844 66.988281 C 35.273438 67.066406 36.203125 67.101562 37.136719 67.101562 C 39.828125 67.101562 42.515625 66.816406 45.1875 66.515625 C 43.261719 63.484375 41.445312 60.390625 38.941406 57.785156 C 36.144531 54.867188 32.867188 52.410156 29.242188 50.617188 C 24.945312 48.488281 20.214844 47.367188 15.472656 47.367188 Z M 15.472656 47.367188 L 15.472656 48.679688 C 19.984375 48.679688 24.542969 49.757812 28.65625 51.792969 C 32.09375 53.496094 35.234375 55.816406 37.996094 58.695312 C 39.921875 60.699219 41.421875 63 42.957031 65.4375 C 40.941406 65.640625 39.039062 65.789062 37.136719 65.789062 C 36.1875 65.789062 35.308594 65.75 34.449219 65.675781 C 30.488281 65.339844 26.710938 64.351562 23.222656 62.746094 C 17.085938 59.917969 12.179688 55.199219 9.265625 49.367188 C 11.285156 48.910156 13.367188 48.679688 15.472656 48.679688 L 15.472656 47.367188 "/><path style=" stroke:none;fill-rule:nonzero;fill:rgb(70.588684%,79.219055%,70.588684%);fill-opacity:1;" d="M 44.25 66.175781 C 40.980469 64.800781 38.210938 63.546875 35.605469 61.796875 C 32.238281 59.542969 29.351562 56.796875 27.03125 53.640625 C 22.765625 47.84375 20.707031 40.878906 21.191406 33.9375 C 27.992188 35.695312 33.988281 39.929688 38.144531 45.921875 C 40.375 49.136719 42.035156 52.761719 43.082031 56.6875 C 43.875 59.660156 44.054688 62.792969 44.230469 65.824219 C 44.238281 65.941406 44.242188 66.058594 44.25 66.175781 "/><path style=" stroke:none;fill-rule:nonzero;fill:rgb(3.138733%,25.099182%,15.689087%);fill-opacity:1;" d="M 20.601562 33.117188 C 19.882812 40.550781 22.085938 48.027344 26.503906 54.03125 C 28.898438 57.289062 31.882812 60.097656 35.242188 62.34375 C 38.265625 64.371094 41.621094 65.796875 44.96875 67.1875 C 44.746094 63.601562 44.644531 60.007812 43.714844 56.515625 C 42.675781 52.609375 40.988281 48.871094 38.683594 45.546875 C 34.386719 39.351562 27.953125 34.808594 20.601562 33.117188 Z M 21.800781 34.785156 C 28.128906 36.617188 33.699219 40.660156 37.605469 46.296875 C 39.789062 49.449219 41.421875 53.003906 42.449219 56.855469 C 43.164062 59.546875 43.363281 62.28125 43.53125 65.15625 C 40.714844 63.953125 38.273438 62.792969 35.96875 61.253906 C 32.664062 59.039062 29.835938 56.347656 27.558594 53.25 C 23.550781 47.804688 21.535156 41.304688 21.800781 34.785156 "/><path style=" stroke:none;fill-rule:nonzero;fill:rgb(70.588684%,79.219055%,70.588684%);fill-opacity:1;" d="M 44.996094 65.929688 C 43.570312 63.597656 42.40625 61.542969 41.554688 59.261719 C 40.429688 56.242188 39.84375 53.128906 39.808594 50.011719 C 39.746094 44.351562 41.613281 38.953125 45.078125 34.726562 C 48.578125 39 50.445312 44.464844 50.34375 50.203125 C 50.289062 53.316406 49.679688 56.421875 48.535156 59.441406 C 47.667969 61.726562 46.324219 63.835938 45.027344 65.875 C 45.019531 65.894531 45.007812 65.910156 44.996094 65.929688 "/><path style=" stroke:none;fill-rule:nonzero;fill:rgb(3.138733%,25.099182%,15.689087%);fill-opacity:1;" d="M 45.078125 33.714844 C 41.148438 38.191406 39.089844 44.066406 39.152344 50.019531 C 39.1875 53.253906 39.8125 56.464844 40.941406 59.492188 C 41.957031 62.214844 43.464844 64.707031 44.988281 67.171875 C 46.511719 64.746094 48.125 62.371094 49.148438 59.671875 C 50.292969 56.65625 50.945312 53.445312 51 50.214844 C 51.105469 44.195312 49.054688 38.246094 45.078125 33.714844 Z M 45.078125 35.789062 C 48.152344 39.839844 49.78125 44.894531 49.6875 50.191406 C 49.636719 53.226562 49.042969 56.257812 47.921875 59.207031 C 47.191406 61.132812 46.144531 62.882812 45.007812 64.683594 C 43.847656 62.742188 42.890625 60.964844 42.171875 59.03125 C 41.070312 56.082031 40.5 53.046875 40.464844 50.007812 C 40.410156 44.78125 42.039062 39.792969 45.078125 35.789062 "/><path style=" stroke:none;fill-rule:nonzero;fill:rgb(70.588684%,79.219055%,70.588684%);fill-opacity:1;" d="M 20.886719 83.824219 C 20.402344 83.824219 19.910156 83.808594 19.421875 83.777344 C 20.855469 78.4375 24.207031 73.742188 28.929688 70.484375 C 31.488281 68.71875 34.363281 67.402344 37.484375 66.582031 C 39.84375 65.957031 42.339844 65.820312 44.75 65.6875 C 44.773438 65.6875 44.796875 65.6875 44.816406 65.6875 C 43.75 68.207031 42.757812 70.351562 41.402344 72.367188 C 39.601562 75.042969 37.414062 77.332031 34.90625 79.171875 C 30.808594 82.171875 25.832031 83.824219 20.886719 83.824219 "/><g clip-rule="nonzero" clip-path="url(#clip3)"><path style=" stroke:none;fill-rule:nonzero;fill:rgb(3.138733%,25.099182%,15.689087%);fill-opacity:1;" d="M 45.828125 64.972656 C 42.96875 65.140625 40.105469 65.210938 37.316406 65.945312 C 34.199219 66.769531 31.214844 68.109375 28.554688 69.941406 C 23.605469 73.363281 19.964844 78.496094 18.597656 84.367188 C 19.363281 84.445312 20.125 84.480469 20.886719 84.480469 C 26.042969 84.480469 31.113281 82.765625 35.289062 79.703125 C 37.898438 77.792969 40.140625 75.414062 41.945312 72.734375 C 43.566406 70.324219 44.710938 67.644531 45.828125 64.972656 Z M 43.796875 66.398438 C 42.894531 68.472656 42.007812 70.292969 40.859375 72 C 39.097656 74.613281 36.96875 76.847656 34.515625 78.640625 C 30.535156 81.5625 25.695312 83.167969 20.886719 83.167969 C 20.6875 83.167969 20.488281 83.164062 20.285156 83.160156 C 21.785156 78.300781 24.945312 74.03125 29.300781 71.027344 C 31.796875 69.300781 34.605469 68.023438 37.652344 67.21875 C 39.640625 66.691406 41.667969 66.523438 43.796875 66.398438 "/></g><path style=" stroke:none;fill-rule:nonzero;fill:rgb(70.588684%,79.219055%,70.588684%);fill-opacity:1;" d="M 69.269531 83.824219 C 64.324219 83.824219 59.34375 82.171875 55.253906 79.171875 C 52.742188 77.332031 50.554688 75.042969 48.757812 72.367188 C 47.398438 70.351562 46.40625 68.207031 45.339844 65.6875 C 45.363281 65.6875 45.382812 65.6875 45.40625 65.6875 C 47.816406 65.820312 50.3125 65.957031 52.671875 66.582031 C 55.792969 67.402344 58.671875 68.71875 61.226562 70.484375 C 65.945312 73.742188 69.300781 78.4375 70.730469 83.777344 C 70.246094 83.808594 69.757812 83.824219 69.269531 83.824219 "/><g clip-rule="nonzero" clip-path="url(#clip4)"><path style=" stroke:none;fill-rule:nonzero;fill:rgb(3.138733%,25.099182%,15.689087%);fill-opacity:1;" d="M 44.328125 64.972656 C 45.445312 67.644531 46.589844 70.324219 48.210938 72.734375 C 50.015625 75.414062 52.257812 77.792969 54.863281 79.703125 C 59.046875 82.765625 64.113281 84.480469 69.269531 84.480469 C 70.03125 84.480469 70.796875 84.445312 71.558594 84.367188 C 70.191406 78.496094 66.550781 73.363281 61.601562 69.941406 C 58.945312 68.109375 55.960938 66.769531 52.839844 65.945312 C 50.050781 65.210938 47.1875 65.140625 44.328125 64.972656 Z M 46.359375 66.398438 C 48.484375 66.523438 50.515625 66.691406 52.503906 67.21875 C 55.550781 68.023438 58.359375 69.300781 60.855469 71.027344 C 65.210938 74.03125 68.371094 78.300781 69.875 83.160156 C 69.671875 83.164062 69.46875 83.167969 69.269531 83.167969 C 64.464844 83.167969 59.625 81.5625 55.640625 78.640625 C 53.191406 76.847656 51.054688 74.613281 49.300781 72 C 48.148438 70.292969 47.261719 68.472656 46.359375 66.398438 "/></g></g></svg>